<svg version="1.1" xmlns="http://www.w3.org/2000/svg" viewBox="0 0 521.6483473966491 532.4300070004666" width="521.6483473966491" height="532.4300070004666">
  <!-- svg-source:excalidraw -->
  
  <defs>
    <style class="style-fonts">
      
    </style>
    
  </defs>
  <g stroke-linecap="round" transform="translate(-28.887033493766012 258.21465265802783) rotate(270.09915898868024 224.73953974895403 39.40794979079499)"><path d="M0 0 L449.48 0 L449.48 78.82 L0 78.82" stroke="none" stroke-width="0" fill="#40c057"></path><path d="M0 0 C90.77 0, 181.54 0, 449.48 0 M0 0 C126.38 0, 252.76 0, 449.48 0 M449.48 0 C449.48 16.95, 449.48 33.9, 449.48 78.82 M449.48 0 C449.48 31.4, 449.48 62.8, 449.48 78.82 M449.48 78.82 C293.25 78.82, 137.01 78.82, 0 78.82 M449.48 78.82 C293.91 78.82, 138.34 78.82, 0 78.82 M0 78.82 C0 50.29, 0 21.77, 0 0 M0 78.82 C0 58.8, 0 38.79, 0 0" stroke="transparent" stroke-width="1" fill="none"></path></g><g transform="translate(99.30127487091067 285.914472531697) rotate(270.09915898868024 96.55123138427734 11.708129917125689)"><text x="96.55123138427734" y="17.206258181536853" font-family="Helvetica, Segoe UI Emoji" font-size="20.361965073262148px" fill="#1e1e1e" text-anchor="middle" style="white-space: pre;" direction="ltr" dominant-baseline="alphabetic">Alineación al negocio</text></g><g stroke-linecap="round"><g transform="translate(161.0931513011103 108.22233816017331) rotate(270.09915898868024 35.33865062761515 -62.82426778242689)" fill-rule="evenodd"><path d="M0 0 L70.68 -62.82 L0 -125.65 L0 0" stroke="none" stroke-width="0" fill="#40c057" fill-rule="evenodd"></path><path d="M0 0 C14.43 -12.82, 28.85 -25.65, 70.68 -62.82 M0 0 C26.32 -23.39, 52.63 -46.78, 70.68 -62.82 M70.68 -62.82 C51.33 -80.02, 31.99 -97.21, 0 -125.65 M70.68 -62.82 C49.12 -81.99, 27.56 -101.16, 0 -125.65 M0 -125.65 C0 -90.35, 0 -55.05, 0 0 M0 -125.65 C0 -87.28, 0 -48.91, 0 0 M0 0 C0 0, 0 0, 0 0 M0 0 C0 0, 0 0, 0 0" stroke="transparent" stroke-width="1" fill="none"></path></g></g><mask></mask><g stroke-linecap="round" transform="translate(96.5664971105341 258.15517998558937) rotate(270.09915898868024 224.73953974895414 39.40794979079499)"><path d="M0 0 L449.48 0 L449.48 78.82 L0 78.82" stroke="none" stroke-width="0" fill="#b2f2bb"></path><path d="M0 0 C162.41 0, 324.83 0, 449.48 0 M0 0 C97.18 0, 194.36 0, 449.48 0 M449.48 0 C449.48 18.6, 449.48 37.2, 449.48 78.82 M449.48 0 C449.48 18.19, 449.48 36.38, 449.48 78.82 M449.48 78.82 C310.36 78.82, 171.25 78.82, 0 78.82 M449.48 78.82 C339.53 78.82, 229.58 78.82, 0 78.82 M0 78.82 C0 55.85, 0 32.88, 0 0 M0 78.82 C0 60.46, 0 42.11, 0 0" stroke="transparent" stroke-width="1" fill="none"></path></g><g transform="translate(183.96817675206626 285.85499985925856) rotate(270.09915898868024 137.33786010742176 11.708129917125689)"><text x="137.33786010742188" y="17.206258181536853" font-family="Helvetica, Segoe UI Emoji" font-size="20.361965073262148px" fill="#1e1e1e" text-anchor="middle" style="white-space: pre;" direction="ltr" dominant-baseline="alphabetic">Mejor integración con terceros</text></g><g stroke-linecap="round"><g transform="translate(286.54668190541065 108.16286548773473) rotate(270.09915898868024 35.33865062761515 -62.82426778242683)" fill-rule="evenodd"><path d="M0 0 L70.68 -62.82 L0 -125.65 L0 0" stroke="none" stroke-width="0" fill="#b2f2bb" fill-rule="evenodd"></path><path d="M0 0 C15.45 -13.74, 30.9 -27.47, 70.68 -62.82 M0 0 C14.73 -13.1, 29.47 -26.19, 70.68 -62.82 M70.68 -62.82 C44.62 -85.98, 18.57 -109.14, 0 -125.65 M70.68 -62.82 C49.76 -81.41, 28.85 -100, 0 -125.65 M0 -125.65 C0 -92.93, 0 -60.2, 0 0 M0 -125.65 C0 -80.88, 0 -36.12, 0 0 M0 0 C0 0, 0 0, 0 0 M0 0 C0 0, 0 0, 0 0" stroke="transparent" stroke-width="1" fill="none"></path></g></g><mask></mask><g stroke-linecap="round" transform="translate(223.5664971105341 258.15517998558937) rotate(270.09915898868024 224.73953974895414 39.40794979079499)"><path d="M0 0 L449.48 0 L449.48 78.82 L0 78.82" stroke="none" stroke-width="0" fill="#e6fcf5"></path><path d="M0 0 C169.74 0, 339.47 0, 449.48 0 M0 0 C118.12 0, 236.23 0, 449.48 0 M449.48 0 C449.48 17.18, 449.48 34.36, 449.48 78.82 M449.48 0 C449.48 25.8, 449.48 51.6, 449.48 78.82 M449.48 78.82 C343.49 78.82, 237.5 78.82, 0 78.82 M449.48 78.82 C350.17 78.82, 250.87 78.82, 0 78.82 M0 78.82 C0 63, 0 47.18, 0 0 M0 78.82 C0 55.16, 0 31.49, 0 0" stroke="transparent" stroke-width="1" fill="none"></path></g><g transform="translate(370.45457354161704 285.85499985925856) rotate(270.09915898868024 77.85146331787098 11.708129917125689)"><text x="77.8514633178711" y="17.206258181536853" font-family="Helvetica, Segoe UI Emoji" font-size="20.361965073262148px" fill="#1e1e1e" text-anchor="middle" style="white-space: pre;" direction="ltr" dominant-baseline="alphabetic">Monitoreo simple</text></g><g stroke-linecap="round"><g transform="translate(413.54668190541065 108.1628654877345) rotate(270.09915898868024 35.33865062761504 -62.82426778242683)" fill-rule="evenodd"><path d="M0 0 L70.68 -62.82 L0 -125.65 L0 0" stroke="none" stroke-width="0" fill="#e6fcf5" fill-rule="evenodd"></path><path d="M0 0 C15.33 -13.63, 30.67 -27.26, 70.68 -62.82 M0 0 C27.69 -24.61, 55.38 -49.23, 70.68 -62.82 M70.68 -62.82 C47.7 -83.24, 24.73 -103.66, 0 -125.65 M70.68 -62.82 C43.58 -86.91, 16.47 -111.01, 0 -125.65 M0 -125.65 C0 -79.47, 0 -33.29, 0 0 M0 -125.65 C0 -77.43, 0 -29.21, 0 0 M0 0 C0 0, 0 0, 0 0 M0 0 C0 0, 0 0, 0 0" stroke="transparent" stroke-width="1" fill="none"></path></g></g><mask></mask><g stroke-linecap="round" transform="translate(-152.43350288946567 258.15517998558937) rotate(270.09915898868024 224.73953974895403 39.40794979079499)"><path d="M0 0 L449.48 0 L449.48 78.82 L0 78.82" stroke="none" stroke-width="0" fill="#2f9e44"></path><path d="M0 0 C175.44 0, 350.87 0, 449.48 0 M0 0 C129.21 0, 258.43 0, 449.48 0 M449.48 0 C449.48 30.88, 449.48 61.75, 449.48 78.82 M449.48 0 C449.48 27.39, 449.48 54.78, 449.48 78.82 M449.48 78.82 C291.02 78.82, 132.56 78.82, 0 78.82 M449.48 78.82 C277.93 78.82, 106.38 78.82, 0 78.82 M0 78.82 C0 55.5, 0 32.18, 0 0 M0 78.82 C0 52.59, 0 26.37, 0 0" stroke="transparent" stroke-width="1" fill="none"></path></g><g transform="translate(13.447974115347733 285.85499985925856) rotate(270.09915898868024 58.858062744140625 11.708129917125689)"><text x="58.858062744140625" y="17.206258181536853" font-family="Helvetica, Segoe UI Emoji" font-size="20.361965073262148px" fill="#1e1e1e" text-anchor="middle" style="white-space: pre;" direction="ltr" dominant-baseline="alphabetic">Reusabilidad</text></g><g stroke-linecap="round"><g transform="translate(37.54668190541088 108.16286548773473) rotate(270.09915898868024 35.33865062761515 -62.82426778242683)" fill-rule="evenodd"><path d="M0 0 L70.68 -62.82 L0 -125.65 L0 0" stroke="none" stroke-width="0" fill="#2f9e44" fill-rule="evenodd"></path><path d="M0 0 C16.85 -14.98, 33.7 -29.96, 70.68 -62.82 M0 0 C17.12 -15.21, 34.23 -30.43, 70.68 -62.82 M70.68 -62.82 C48.79 -82.28, 26.91 -101.73, 0 -125.65 M70.68 -62.82 C48.55 -82.49, 26.43 -102.16, 0 -125.65 M0 -125.65 C0 -75.44, 0 -25.23, 0 0 M0 -125.65 C0 -81.32, 0 -36.99, 0 0 M0 0 C0 0, 0 0, 0 0 M0 0 C0 0, 0 0, 0 0" stroke="transparent" stroke-width="1" fill="none"></path></g></g><mask></mask></svg>