<svg version="1.1" xmlns="http://www.w3.org/2000/svg" viewBox="0 0 641.3016817955015 533.9397473110319" width="641.3016817955015" height="533.9397473110319">
  <!-- svg-source:excalidraw -->
  
  <defs>
    <style class="style-fonts">
      
    </style>
    
  </defs>
  <g stroke-linecap="round" transform="translate(-151.7462537322217 195.33635540404396) rotate(90.00693094037865 224.73953974895403 39.40794979079499)"><path d="M0 0 L449.48 0 L449.48 78.82 L0 78.82" stroke="none" stroke-width="0" fill="#ffc9c9"></path><path d="M0 0 C173.03 0, 346.07 0, 449.48 0 M0 0 C147.86 0, 295.71 0, 449.48 0 M449.48 0 C449.48 27.48, 449.48 54.97, 449.48 78.82 M449.48 0 C449.48 28.92, 449.48 57.85, 449.48 78.82 M449.48 78.82 C320.91 78.82, 192.35 78.82, 0 78.82 M449.48 78.82 C276.81 78.82, 104.14 78.82, 0 78.82 M0 78.82 C0 62.26, 0 45.71, 0 0 M0 78.82 C0 59.37, 0 39.92, 0 0" stroke="transparent" stroke-width="1" fill="none"></path></g><g transform="translate(-21.281364556998142 223.0361752777132) rotate(90.00693094037865 94.27465057373047 11.708129917125746)"><text x="94.27465057373047" y="17.206258181536853" font-family="Helvetica, Segoe UI Emoji" font-size="20.361965073262148px" fill="#1e1e1e" text-anchor="middle" style="white-space: pre;" direction="ltr" dominant-baseline="alphabetic">Integración compleja</text></g><g stroke-linecap="round"><g transform="translate(37.481341858819405 549.7937107635369) rotate(90.00693094037865 35.33865062761515 -62.82426778242689)" fill-rule="evenodd"><path d="M0 0 L70.68 -62.82 L0 -125.65 L0 0" stroke="none" stroke-width="0" fill="#ffc9c9" fill-rule="evenodd"></path><path d="M0 0 C20.9 -18.58, 41.81 -37.16, 70.68 -62.82 M0 0 C26.97 -23.98, 53.95 -47.95, 70.68 -62.82 M70.68 -62.82 C54.97 -76.78, 39.27 -90.74, 0 -125.65 M70.68 -62.82 C42.95 -87.47, 15.23 -112.11, 0 -125.65 M0 -125.65 C0 -100.35, 0 -75.05, 0 0 M0 -125.65 C0 -77.51, 0 -29.37, 0 0 M0 0 C0 0, 0 0, 0 0 M0 0 C0 0, 0 0, 0 0" stroke="transparent" stroke-width="1" fill="none"></path></g></g><mask></mask><g stroke-linecap="round" transform="translate(-28.454736437704923 196.9680093649091) rotate(90.00693094037865 224.73953974895392 39.40794979079499)"><path d="M0 0 L449.48 0 L449.48 78.82 L0 78.82" stroke="none" stroke-width="0" fill="#ff8787"></path><path d="M0 0 C116.65 0, 233.3 0, 449.48 0 M0 0 C113.11 0, 226.21 0, 449.48 0 M449.48 0 C449.48 26.53, 449.48 53.07, 449.48 78.82 M449.48 0 C449.48 30.02, 449.48 60.04, 449.48 78.82 M449.48 78.82 C284.33 78.82, 119.19 78.82, 0 78.82 M449.48 78.82 C319.47 78.82, 189.46 78.82, 0 78.82 M0 78.82 C0 51.21, 0 23.61, 0 0 M0 78.82 C0 59.75, 0 40.68, 0 0" stroke="transparent" stroke-width="1" fill="none"></path></g><g transform="translate(126.13827315988192 224.66782923857835) rotate(90.00693094037865 70.14653015136719 11.708129917125746)"><text x="70.14653015136719" y="17.206258181536853" font-family="Helvetica, Segoe UI Emoji" font-size="20.361965073262148px" fill="#1e1e1e" text-anchor="middle" style="white-space: pre;" direction="ltr" dominant-baseline="alphabetic">SOAP Y WSDL</text></g><g stroke-linecap="round"><g transform="translate(160.77285915333596 551.4253647244022) rotate(90.00693094037865 35.33865062761515 -62.82426778242689)" fill-rule="evenodd"><path d="M0 0 L70.68 -62.82 L0 -125.65 L0 0" stroke="none" stroke-width="0" fill="#ff8787" fill-rule="evenodd"></path><path d="M0 0 C24.81 -22.05, 49.62 -44.11, 70.68 -62.82 M0 0 C19.23 -17.1, 38.47 -34.19, 70.68 -62.82 M70.68 -62.82 C45.69 -85.03, 20.71 -107.24, 0 -125.65 M70.68 -62.82 C45.07 -85.59, 19.46 -108.35, 0 -125.65 M0 -125.65 C0 -97.86, 0 -70.08, 0 0 M0 -125.65 C0 -77.71, 0 -29.77, 0 0 M0 0 C0 0, 0 0, 0 0 M0 0 C0 0, 0 0, 0 0" stroke="transparent" stroke-width="1" fill="none"></path></g></g><mask></mask><g stroke-linecap="round" transform="translate(97.5452635622953 196.7040434298532) rotate(90.00693094037865 224.73953974895403 39.40794979079499)"><path d="M0 0 L449.48 0 L449.48 78.82 L0 78.82" stroke="none" stroke-width="0" fill="#fa5252"></path><path d="M0 0 C105.2 0, 210.4 0, 449.48 0 M0 0 C93.18 0, 186.37 0, 449.48 0 M449.48 0 C449.48 20.71, 449.48 41.41, 449.48 78.82 M449.48 0 C449.48 19.37, 449.48 38.73, 449.48 78.82 M449.48 78.82 C303.62 78.82, 157.76 78.82, 0 78.82 M449.48 78.82 C328.79 78.82, 208.09 78.82, 0 78.82 M0 78.82 C0 54.85, 0 30.88, 0 0 M0 78.82 C0 61.27, 0 43.72, 0 0" stroke="transparent" stroke-width="1" fill="none"></path></g><g transform="translate(266.2550639313665 224.40386330352243) rotate(90.00693094037865 56.02973937988281 11.708129917125746)"><text x="56.02973937988281" y="17.206258181536853" font-family="Helvetica, Segoe UI Emoji" font-size="20.361965073262148px" fill="#1e1e1e" text-anchor="middle" style="white-space: pre;" direction="ltr" dominant-baseline="alphabetic">Gobernanza</text></g><g stroke-linecap="round"><g transform="translate(286.7728591533362 551.1613987893463) rotate(90.00693094037865 35.33865062761515 -62.82426778242683)" fill-rule="evenodd"><path d="M0 0 L70.68 -62.82 L0 -125.65 L0 0" stroke="none" stroke-width="0" fill="#fa5252" fill-rule="evenodd"></path><path d="M0 0 C16.35 -14.53, 32.69 -29.06, 70.68 -62.82 M0 0 C26.8 -23.82, 53.59 -47.64, 70.68 -62.82 M70.68 -62.82 C54.66 -77.07, 38.63 -91.31, 0 -125.65 M70.68 -62.82 C44.01 -86.53, 17.34 -110.23, 0 -125.65 M0 -125.65 C0 -83.13, 0 -40.61, 0 0 M0 -125.65 C0 -94.28, 0 -62.92, 0 0 M0 0 C0 0, 0 0, 0 0 M0 0 C0 0, 0 0, 0 0" stroke="transparent" stroke-width="1" fill="none"></path></g></g><mask></mask><g stroke-linecap="round" transform="translate(222.58151641844324 196.25287539005046) rotate(90.00693094037865 224.73953974895392 39.40794979079499)"><path d="M0 0 L449.48 0 L449.48 78.82 L0 78.82" stroke="none" stroke-width="0" fill="#e03131"></path><path d="M0 0 C162.62 0, 325.25 0, 449.48 0 M0 0 C137.08 0, 274.16 0, 449.48 0 M449.48 0 C449.48 27.8, 449.48 55.61, 449.48 78.82 M449.48 0 C449.48 17.7, 449.48 35.4, 449.48 78.82 M449.48 78.82 C329.72 78.82, 209.96 78.82, 0 78.82 M449.48 78.82 C315.76 78.82, 182.03 78.82, 0 78.82 M0 78.82 C0 58.36, 0 37.9, 0 0 M0 78.82 C0 47.65, 0 16.48, 0 0" stroke="transparent" stroke-width="1" fill="none"></path></g><g transform="translate(320.5632436673975 223.9526952637197) rotate(90.00693094037865 126.7578125 11.708129917125746)"><text x="126.7578125" y="17.206258181536853" font-family="Helvetica, Segoe UI Emoji" font-size="20.361965073262148px" fill="#1e1e1e" text-anchor="middle" style="white-space: pre;" direction="ltr" dominant-baseline="alphabetic">Rendimiento y escalabilidad</text></g><g stroke-linecap="round"><g transform="translate(411.8091120094839 550.7102307495436) rotate(90.00693094037865 35.33865062761515 -62.82426778242689)" fill-rule="evenodd"><path d="M0 0 L70.68 -62.82 L0 -125.65 L0 0" stroke="none" stroke-width="0" fill="#e03131" fill-rule="evenodd"></path><path d="M0 0 C19.26 -17.12, 38.51 -34.23, 70.68 -62.82 M0 0 C15.84 -14.08, 31.69 -28.17, 70.68 -62.82 M70.68 -62.82 C49.26 -81.86, 27.85 -100.89, 0 -125.65 M70.68 -62.82 C52.59 -78.9, 34.5 -94.98, 0 -125.65 M0 -125.65 C0 -96.01, 0 -66.37, 0 0 M0 -125.65 C0 -76.59, 0 -27.53, 0 0 M0 0 C0 0, 0 0, 0 0 M0 0 C0 0, 0 0, 0 0" stroke="transparent" stroke-width="1" fill="none"></path></g></g><mask></mask><g stroke-linecap="round" transform="translate(343.906893417746 196.50703588306845) rotate(90.00693094037865 224.73953974895403 39.40794979079499)"><path d="M0 0 L449.48 0 L449.48 78.82 L0 78.82" stroke="none" stroke-width="0" fill="#e03131"></path><path d="M0 0 C155.84 0, 311.68 0, 449.48 0 M0 0 C107.06 0, 214.11 0, 449.48 0 M449.48 0 C449.48 25.24, 449.48 50.47, 449.48 78.82 M449.48 0 C449.48 26.54, 449.48 53.07, 449.48 78.82 M449.48 78.82 C303.63 78.82, 157.79 78.82, 0 78.82 M449.48 78.82 C315.42 78.82, 181.37 78.82, 0 78.82 M0 78.82 C0 59.4, 0 39.98, 0 0 M0 78.82 C0 56.5, 0 34.17, 0 0" stroke="transparent" stroke-width="1" fill="none"></path></g><g transform="translate(403.98703985615316 224.2068557567377) rotate(90.00693094037865 164.65939331054688 11.708129917125746)"><text x="164.65939331054688" y="17.206258181536853" font-family="Helvetica, Segoe UI Emoji" font-size="20.361965073262148px" fill="#1e1e1e" text-anchor="middle" style="white-space: pre;" direction="ltr" dominant-baseline="alphabetic">Gestión del cambio y mantenimiento</text></g><g stroke-linecap="round"><g transform="translate(533.1344890087869 550.9643912425618) rotate(90.00693094037865 35.33865062761515 -62.82426778242689)" fill-rule="evenodd"><path d="M0 0 L70.68 -62.82 L0 -125.65 L0 0" stroke="none" stroke-width="0" fill="#e03131" fill-rule="evenodd"></path><path d="M0 0 C21.02 -18.69, 42.04 -37.37, 70.68 -62.82 M0 0 C23.29 -20.7, 46.57 -41.4, 70.68 -62.82 M70.68 -62.82 C43.23 -87.22, 15.79 -111.61, 0 -125.65 M70.68 -62.82 C51.34 -80.02, 32 -97.21, 0 -125.65 M0 -125.65 C0 -77.18, 0 -28.72, 0 0 M0 -125.65 C0 -75.8, 0 -25.95, 0 0 M0 0 C0 0, 0 0, 0 0 M0 0 C0 0, 0 0, 0 0" stroke="transparent" stroke-width="1" fill="none"></path></g></g><mask></mask></svg>