<svg version="1.1" xmlns="http://www.w3.org/2000/svg" viewBox="0 0 104.18500748891654 92.92983818160403" width="104.18500748891654" height="92.92983818160403">
  <!-- svg-source:excalidraw -->
  
  <defs>
    <style class="style-fonts">
      
    </style>
    
  </defs>
  <g stroke-linecap="round"><g transform="translate(52.09250374445821 4.372408806216896) rotate(89.96806048575621 2.842170943040401e-14 42.092510284585074)" fill-rule="evenodd"><path d="M-36.58 21.2 C-36.58 21.2, -36.58 21.2, -36.58 21.2 M-36.58 21.2 C-36.58 21.2, -36.58 21.2, -36.58 21.2 M-36.19 26.84 C-32.45 22.53, -28.7 18.23, -25.69 14.77 M-36.19 26.84 C-32.13 22.17, -28.08 17.51, -25.69 14.77 M-36.45 33.24 C-30.59 26.49, -24.73 19.75, -15.46 9.09 M-36.45 33.24 C-31.97 28.08, -27.49 22.93, -15.46 9.09 M-36.71 39.64 C-26.77 28.2, -16.82 16.76, -4.57 2.66 M-36.71 39.64 C-27.44 28.97, -18.16 18.3, -4.57 2.66 M-36.32 45.28 C-28.08 35.8, -19.84 26.32, 1.73 1.51 M-36.32 45.28 C-26.8 34.33, -17.29 23.39, 1.73 1.51 M-36.58 51.68 C-23.86 37.05, -11.14 22.42, 5.41 3.38 M-36.58 51.68 C-22.64 35.64, -8.7 19.61, 5.41 3.38 M-36.19 57.32 C-22.74 41.86, -9.3 26.39, 9.08 5.25 M-36.19 57.32 C-19.44 38.05, -2.69 18.79, 9.08 5.25 M-36.45 63.72 C-24.27 49.72, -12.1 35.71, 12.76 7.11 M-36.45 63.72 C-26.23 51.96, -16.01 40.21, 12.76 7.11 M-32.77 65.59 C-22.26 53.49, -11.74 41.39, 15.78 9.74 M-32.77 65.59 C-18.06 48.67, -3.36 31.75, 15.78 9.74 M-29.1 67.46 C-10.9 46.53, 7.29 25.6, 19.45 11.61 M-29.1 67.46 C-12.87 48.79, 3.36 30.11, 19.45 11.61 M-25.42 69.33 C-11.18 52.95, 3.06 36.57, 23.13 13.48 M-25.42 69.33 C-15.38 57.77, -5.33 46.22, 23.13 13.48 M-21.75 71.2 C-10.15 57.86, 1.45 44.51, 26.8 15.35 M-21.75 71.2 C-9.18 56.74, 3.39 42.28, 26.8 15.35 M-18.73 73.82 C-5.6 58.71, 7.54 43.6, 30.48 17.22 M-18.73 73.82 C-5.55 58.66, 7.62 43.51, 30.48 17.22 M-15.05 75.69 C0.26 58.07, 15.58 40.45, 33.49 19.84 M-15.05 75.69 C-2.6 61.37, 9.85 47.04, 33.49 19.84 M-11.38 77.56 C3.14 60.86, 17.66 44.15, 37.17 21.71 M-11.38 77.56 C3.17 60.82, 17.72 44.09, 37.17 21.71 M-7.7 79.43 C1.32 69.05, 10.34 58.67, 36.91 28.11 M-7.7 79.43 C7.03 62.48, 21.75 45.54, 36.91 28.11 M-4.68 82.05 C10.99 64.02, 26.67 45.99, 37.3 33.75 M-4.68 82.05 C9.8 65.4, 24.28 48.74, 37.3 33.75 M-1.01 83.92 C7.31 74.36, 15.62 64.79, 37.04 40.15 M-1.01 83.92 C7.03 74.67, 15.07 65.42, 37.04 40.15 M7.91 79.75 C16.63 69.73, 25.34 59.71, 37.44 45.79 M7.91 79.75 C15.99 70.46, 24.07 61.16, 37.44 45.79 M18.8 73.32 C22.58 68.97, 26.36 64.63, 37.17 52.19 M18.8 73.32 C25.41 65.73, 32.01 58.14, 37.17 52.19 M29.04 67.64 C31.34 65, 33.63 62.36, 36.91 58.59 M29.04 67.64 C32.07 64.16, 35.1 60.68, 36.91 58.59" stroke="#a5d8ff" stroke-width="0.5" fill="none"></path><path d="M0 0 C7.92 4.57, 15.84 9.15, 36.45 21.05 M0 0 C9.66 5.57, 19.31 11.15, 36.45 21.05 M36.45 21.05 C36.45 29.72, 36.45 38.39, 36.45 63.14 M36.45 21.05 C36.45 33.26, 36.45 45.48, 36.45 63.14 M36.45 63.14 C26.6 68.83, 16.74 74.52, 0 84.19 M36.45 63.14 C23.88 70.4, 11.3 77.66, 0 84.19 M0 84.19 C-10.71 78, -21.42 71.82, -36.45 63.14 M0 84.19 C-11.97 77.28, -23.94 70.37, -36.45 63.14 M-36.45 63.14 C-36.45 48.72, -36.45 34.3, -36.45 21.05 M-36.45 63.14 C-36.45 51.14, -36.45 39.13, -36.45 21.05 M-36.45 21.05 C-23.36 13.49, -10.26 5.93, 0 0 M-36.45 21.05 C-28.72 16.58, -21 12.12, 0 0 M0 0 C0 0, 0 0, 0 0 M0 0 C0 0, 0 0, 0 0" stroke="#1971c2" stroke-width="1" fill="none"></path></g></g><mask></mask></svg>